<svg xmlns="http://www.w3.org/2000/svg" width="800px" height="800px" viewBox="-24 -24 92 92" fill="none">
<g id="customize">
<g id="customize_2">
<path id="Combined Shape" fill-rule="evenodd" clip-rule="evenodd" d="M10.9882 18.127C10.9882 16.811 11.8288 15.6922 13.002 15.2772V11.0986H7C6.44828 11.0986 6 11.5469 6 12.0986V36.0986C6 36.6503 6.44828 37.0986 7 37.0986H19.966C20.5183 37.0986 20.966 37.5463 20.966 38.0986C20.966 38.6509 20.5183 39.0986 19.966 39.0986H7C5.34372 39.0986 4 37.7549 4 36.0986V12.0986C4 10.4423 5.34372 9.09863 7 9.09863H13.002V7.12183C13.002 6.56954 13.4497 6.12183 14.002 6.12183C14.5543 6.12183 15.002 6.56954 15.002 7.12183V9.09863H24.002C24.5543 9.09863 25.002 9.54634 25.002 10.0986L25.0017 10.1245L25.002 10.1504V27.2176C26.185 27.628 27.0342 28.7523 27.0342 30.0752C27.0342 31.3981 26.1851 32.5211 25.002 32.9311V37.0986H41C41.5517 37.0986 42 36.6503 42 36.0986V12.0986C42 11.5469 41.5517 11.0986 41 11.0986H28.002C27.4497 11.0986 27.002 10.6509 27.002 10.0986C27.002 9.54634 27.4497 9.09863 28.002 9.09863H33.002V7.13983C33.002 6.58754 33.4497 6.13983 34.002 6.13983C34.5543 6.13983 35.002 6.58754 35.002 7.13983V9.09863H41C42.6563 9.09863 44 10.4423 44 12.0986V36.0986C44 37.7549 42.6563 39.0986 41 39.0986H25.002V41.0004C25.002 41.5527 24.5543 42.0004 24.002 42.0004C23.4497 42.0004 23.002 41.5527 23.002 41.0004V32.925C21.8288 32.5101 20.9882 31.3913 20.9882 30.0752C20.9882 28.7591 21.8288 27.6391 23.002 27.2237V11.0986H15.002V15.2712C16.1851 15.6811 17.0342 16.8042 17.0342 18.127C17.0342 19.4499 16.185 20.5742 15.002 20.9847V34.0518C15.002 34.6041 14.5543 35.0518 14.002 35.0518C13.4497 35.0518 13.002 34.6041 13.002 34.0518V20.9786C11.8288 20.5631 10.9882 19.4431 10.9882 18.127ZM14.041 19.1506C14.0281 19.1501 14.0151 19.1498 14.002 19.1498C13.9917 19.1498 13.9814 19.15 13.9712 19.1503C13.4253 19.1297 12.9882 18.6795 12.9882 18.127C12.9882 17.5622 13.4456 17.105 14.0102 17.105C14.5766 17.105 15.0342 17.562 15.0342 18.127C15.0342 18.6824 14.5925 19.1343 14.041 19.1506ZM33.002 26.9786C31.8288 26.5631 30.9882 25.4431 30.9882 24.127C30.9882 22.811 31.8288 21.6922 33.002 21.2772V14.1498C33.002 13.5975 33.4497 13.1498 34.002 13.1498C34.5543 13.1498 35.002 13.5975 35.002 14.1498V21.2712C36.1851 21.6811 37.0342 22.8042 37.0342 24.127C37.0342 25.4499 36.185 26.5742 35.002 26.9847V34.0518C35.002 34.6041 34.5543 35.0518 34.002 35.0518C33.4497 35.0518 33.002 34.6041 33.002 34.0518V26.9786ZM35.0342 24.127C35.0342 23.562 34.5766 23.105 34.0102 23.105C33.4456 23.105 32.9882 23.5622 32.9882 24.127C32.9882 24.6926 33.4463 25.151 34.0102 25.151C34.5759 25.151 35.0342 24.6927 35.0342 24.127ZM25.0342 30.0752C25.0342 29.5095 24.5759 29.0512 24.0102 29.0512C23.4463 29.0512 22.9882 29.5097 22.9882 30.0752C22.9882 30.6401 23.4456 31.0972 24.0102 31.0972C24.5766 31.0972 25.0342 30.6403 25.0342 30.0752Z" fill="#f2f2f2"/>
</g>
</g>
</svg>